<svg width="112" height="26" viewBox="0 0 112 26" fill="none" xmlns="http://www.w3.org/2000/svg">
<g clip-path="url(#clip0_4_79)">
<path d="M53.6502 9.5719C53.1927 9.98996 52.7352 10.3244 52.2778 10.5752C51.8619 10.8261 51.3212 10.9097 50.6558 10.9097C50.1983 10.9097 49.7408 10.8261 49.3665 10.6171C48.9922 10.4498 48.6179 10.199 48.3684 9.86454C48.0772 9.5301 47.8693 9.15384 47.7029 8.73578C47.5366 8.31772 47.4534 7.85785 47.4534 7.35618V7.31438C47.4534 6.8127 47.5366 6.35284 47.7029 5.93478C47.8693 5.51672 48.0772 5.14046 48.3684 4.80601C48.6595 4.47157 48.9922 4.22073 49.3665 4.05351C49.7408 3.88628 50.1983 3.80267 50.6558 3.80267C51.238 3.80267 51.7371 3.92809 52.1946 4.13712C52.6521 4.38795 53.1511 4.6806 53.6086 5.09866L53.8997 5.3913L56.1456 2.75752L55.896 2.50668C55.6049 2.21404 55.2722 1.9214 54.9395 1.67056C54.5652 1.41973 54.1909 1.2107 53.775 1.00167C53.3591 0.834442 52.9016 0.667218 52.4025 0.583606C51.9035 0.499994 51.3212 0.416382 50.739 0.416382C49.7408 0.416382 48.7843 0.583606 47.9525 0.95986C47.1207 1.33611 46.3721 1.83779 45.7898 2.46488C45.2076 3.09197 44.7085 3.84448 44.3758 4.63879C44.0431 5.47491 43.8767 6.35284 43.8767 7.31438V7.35618C43.8767 8.31772 44.0431 9.19565 44.3758 10.0318C44.7085 10.8679 45.2076 11.5786 45.7898 12.2057C46.4137 12.8328 47.1207 13.2926 47.9525 13.6689C48.7843 14.0033 49.6992 14.2124 50.6558 14.2124C51.2796 14.2124 51.8619 14.1706 52.3609 14.0451C52.86 13.9197 53.3591 13.7943 53.8166 13.5853C54.2325 13.3762 54.6484 13.1254 55.0227 12.8328C55.397 12.5401 55.7297 12.2057 56.0624 11.8712L56.3119 11.5786L54.0245 9.23745L53.6502 9.5719Z" fill="#1F2353"/>
<path d="M68.7055 8.02508C69.2462 7.31437 69.5373 6.39464 69.5373 5.30769V5.26588C69.5373 3.96989 69.1214 2.92474 68.3728 2.13043C67.4578 1.2107 66.127 0.75083 64.4634 0.75083H58.3498V14.087H61.8849V10.0736H63.4237L66.0854 14.087H70.2443L67.042 9.40468C67.7074 9.02842 68.248 8.56855 68.7055 8.02508ZM65.9191 5.4331C65.9191 5.85116 65.7943 6.18561 65.5032 6.43645C65.212 6.68728 64.7961 6.8127 64.2139 6.8127H61.8433V4.0117H64.1723C64.7545 4.0117 65.212 4.13712 65.5032 4.38795C65.7943 4.59698 65.9191 4.93143 65.9191 5.4331Z" fill="#1F2353"/>
<path d="M84.2599 2.50668C83.6361 1.87959 82.8875 1.41973 82.0557 1.04347C81.2239 0.667218 80.2674 0.499994 79.2692 0.499994C78.2711 0.499994 77.3145 0.667218 76.4411 1.04347C75.5678 1.41973 74.8192 1.9214 74.1953 2.50668C73.5715 3.13377 73.0724 3.84448 72.7397 4.6806C72.407 5.51672 72.199 6.39464 72.199 7.35618V7.39799C72.199 8.35953 72.3654 9.23745 72.7397 10.0736C73.0724 10.9097 73.5715 11.6204 74.1953 12.2475C74.8192 12.8746 75.5678 13.3344 76.3996 13.7107C77.2729 14.087 78.1879 14.2542 79.2276 14.2542C80.2258 14.2542 81.1823 14.087 82.0557 13.7107C82.9291 13.3344 83.6777 12.8328 84.3015 12.2475C84.9254 11.6204 85.4244 10.8679 85.7571 10.0736C86.0899 9.23745 86.2978 8.35953 86.2978 7.39799V7.35618C86.2978 6.39464 86.1315 5.51672 85.7571 4.6806C85.3828 3.84448 84.8838 3.13377 84.2599 2.50668ZM82.5548 7.39799C82.5548 7.89966 82.4716 8.35953 82.3052 8.77759C82.1389 9.19565 81.8893 9.5719 81.5982 9.90635C81.3071 10.2408 80.9744 10.4916 80.5585 10.6589C80.1426 10.8261 79.6851 10.9097 79.186 10.9097C78.687 10.9097 78.2295 10.8261 77.8136 10.6171C77.3977 10.4498 77.065 10.1572 76.7323 9.86454C76.4411 9.5301 76.1916 9.15384 76.0253 8.73578C75.8589 8.31772 75.7757 7.85785 75.7757 7.35618V7.31438C75.7757 6.8127 75.8589 6.35284 76.0253 5.93478C76.1916 5.51672 76.4411 5.14046 76.7323 4.80601C77.0234 4.47157 77.3561 4.22073 77.772 4.05351C78.1879 3.88628 78.6454 3.80267 79.1444 3.80267C79.6435 3.80267 80.101 3.88628 80.4753 4.09531C80.8912 4.26254 81.2655 4.55518 81.5566 4.84782C81.8478 5.18227 82.0973 5.55852 82.2636 5.97658C82.4716 6.43645 82.5548 6.89632 82.5548 7.39799Z" fill="#1F2353"/>
<path d="M97.9428 7.14715C97.5685 6.8127 97.111 6.56187 96.5704 6.31103C96.0713 6.102 95.489 5.89297 94.8236 5.72575C94.283 5.60033 93.8671 5.47491 93.4928 5.34949C93.16 5.26588 92.9105 5.14046 92.7442 5.05685C92.5778 4.97324 92.4946 4.88963 92.4946 4.80601C92.453 4.7224 92.4114 4.59698 92.4114 4.47157C92.4114 4.30434 92.4946 4.13712 92.661 4.0117C92.8689 3.84448 93.2016 3.80267 93.6175 3.80267C94.1166 3.80267 94.5741 3.88628 95.0732 4.09531C95.5722 4.30434 96.1129 4.59698 96.6535 4.97324L96.9863 5.18227L98.8578 2.46488L98.5667 2.21404C97.9012 1.67056 97.1526 1.2525 96.3624 0.95986C95.5722 0.667218 94.6573 0.5418 93.7007 0.5418C93.0353 0.5418 92.3699 0.625412 91.8292 0.834442C91.2469 1.04347 90.7479 1.33611 90.332 1.67056C89.9161 2.04682 89.5834 2.50668 89.3338 3.00836C89.0843 3.51003 88.9595 4.09531 88.9595 4.7224V4.76421C88.9595 5.4331 89.0843 6.01839 89.2922 6.47825C89.5002 6.93812 89.8329 7.35618 90.2488 7.64882C90.6231 7.94147 91.1222 8.1923 91.6628 8.40133C92.2035 8.61036 92.7857 8.77759 93.4096 8.94481C93.9087 9.07023 94.3245 9.19565 94.6573 9.32106C94.9484 9.44648 95.1979 9.53009 95.3643 9.65551C95.5306 9.73912 95.5722 9.82274 95.6138 9.86454C95.6554 9.94815 95.6554 10.0318 95.6554 10.1572V10.199C95.6554 10.4498 95.5722 10.6171 95.3643 10.7425C95.1147 10.9097 94.7404 10.9933 94.2414 10.9933C93.5759 10.9933 92.9937 10.8679 92.453 10.6171C91.8708 10.3662 91.3301 9.98996 90.7895 9.5719L90.4983 9.32106L88.3773 11.8712L88.6684 12.1221C89.4586 12.8328 90.332 13.3762 91.2885 13.7107C92.2451 14.0451 93.2432 14.2124 94.1998 14.2124C94.9068 14.2124 95.5722 14.1288 96.1545 13.9197C96.7367 13.7525 97.2774 13.4599 97.7349 13.0836C98.1924 12.7074 98.5251 12.2475 98.7746 11.704C99.0241 11.1605 99.1489 10.5752 99.1489 9.86454V9.82274C99.1489 9.23745 99.0657 8.69397 98.8578 8.23411C98.6082 7.89966 98.3171 7.4816 97.9428 7.14715Z" fill="#1F2353"/>
<path d="M110.836 7.14715C110.461 6.8127 110.004 6.56187 109.463 6.31103C108.964 6.102 108.382 5.89297 107.716 5.72575C107.176 5.60033 106.76 5.47491 106.385 5.34949C106.053 5.26588 105.803 5.14046 105.637 5.05685C105.47 4.97324 105.387 4.88963 105.387 4.80601C105.346 4.7224 105.304 4.59698 105.304 4.47157C105.304 4.30434 105.387 4.13712 105.554 4.0117C105.762 3.84448 106.094 3.80267 106.51 3.80267C107.009 3.80267 107.467 3.88628 107.966 4.09531C108.465 4.30434 109.006 4.59698 109.546 4.97324L109.879 5.18227L111.75 2.46488L111.459 2.21404C110.794 1.67056 110.045 1.2525 109.255 0.95986C108.465 0.667218 107.55 0.5418 106.593 0.5418C105.928 0.5418 105.263 0.625412 104.722 0.834442C104.14 1.04347 103.641 1.33611 103.225 1.67056C102.809 2.04682 102.476 2.50668 102.227 3.00836C101.977 3.51003 101.852 4.09531 101.852 4.7224V4.76421C101.852 5.4331 101.977 6.01839 102.185 6.47825C102.393 6.93812 102.726 7.35618 103.141 7.64882C103.516 7.94147 104.015 8.1923 104.556 8.40133C105.096 8.61036 105.678 8.77759 106.302 8.94481C106.801 9.07023 107.217 9.19565 107.55 9.32106C107.841 9.44648 108.091 9.53009 108.257 9.65551C108.423 9.73912 108.465 9.82274 108.507 9.86454C108.548 9.94815 108.548 10.0318 108.548 10.1572V10.199C108.548 10.4498 108.465 10.6171 108.257 10.7425C108.007 10.9097 107.633 10.9933 107.134 10.9933C106.469 10.9933 105.886 10.8679 105.346 10.6171C104.763 10.3662 104.223 9.98996 103.682 9.5719L103.391 9.32106L101.27 11.8712L101.561 12.1221C102.351 12.8328 103.225 13.3762 104.181 13.7107C105.138 14.0451 106.136 14.2124 107.092 14.2124C107.799 14.2124 108.465 14.1288 109.047 13.9197C109.671 13.7525 110.17 13.4599 110.628 13.0836C111.085 12.7074 111.418 12.2475 111.667 11.704C111.917 11.1605 112.042 10.5752 112.042 9.86454V9.82274C112.042 9.23745 111.958 8.69397 111.75 8.23411C111.501 7.89966 111.21 7.4816 110.836 7.14715Z" fill="#1F2353"/>
<path d="M44.0431 19.2709H46.3721V25.3746H48.3268V19.2709H50.6558V17.4314H44.0847V19.2709H44.0431Z" fill="#EF4F23"/>
<path d="M59.0984 17.3896L55.7297 25.3746H57.726L58.433 23.6605H61.469L62.176 25.3746H64.2139L60.8452 17.3896H59.0984ZM59.14 21.9047L59.9718 19.898L60.8036 21.9047H59.14Z" fill="#EF4F23"/>
<path d="M75.443 21.7375C75.7757 21.3194 75.9421 20.7759 75.9421 20.107C75.9421 19.3545 75.6925 18.7274 75.2351 18.2676C74.6944 17.7241 73.9042 17.4314 72.9061 17.4314H69.2878V25.3746H71.2425V22.908H72.3654L73.9874 25.3746H76.2748L74.3617 22.5736C74.7776 22.3645 75.1519 22.1137 75.443 21.7375ZM73.6547 20.9013C73.4467 21.0686 73.1556 21.1522 72.7813 21.1522H71.2009V19.2291H72.7397C73.114 19.2291 73.4051 19.3127 73.6131 19.4799C73.821 19.6472 73.9042 19.8562 73.9042 20.2324C73.9458 20.5251 73.8626 20.7341 73.6547 20.9013Z" fill="#EF4F23"/>
<path d="M87.0048 22.4482V23.3261C86.6305 23.5769 86.1315 23.7441 85.5492 23.7441C85.2165 23.7441 84.9254 23.7023 84.6758 23.5769C84.4263 23.4515 84.1768 23.3261 84.0104 23.1171C83.8025 22.908 83.6777 22.6572 83.5529 22.4063C83.4281 22.1137 83.3866 21.8211 83.3866 21.4448C83.3866 21.1522 83.4281 20.8595 83.5529 20.5669C83.6777 20.316 83.8025 20.0652 84.0104 19.8562C84.2183 19.6472 84.4263 19.4799 84.6758 19.3545C84.9254 19.2291 85.1749 19.1873 85.466 19.1873C85.674 19.1873 85.8819 19.1873 86.0483 19.2291C86.2146 19.2709 86.381 19.3127 86.5473 19.3545C86.7137 19.3963 86.8385 19.4799 86.9632 19.5635C87.088 19.6472 87.2544 19.7726 87.3791 19.898L87.4623 19.9816L88.6684 18.4766L88.5852 18.393C88.3773 18.2257 88.1693 18.0585 87.9614 17.9331C87.7534 17.8077 87.5039 17.6823 87.2544 17.5987C87.0048 17.515 86.7553 17.4314 86.4642 17.3896C86.173 17.3478 85.8403 17.306 85.5076 17.306C84.9254 17.306 84.3431 17.4314 83.844 17.6405C83.345 17.8495 82.8875 18.1421 82.5548 18.5184C82.1805 18.8946 81.8893 19.3127 81.6814 19.8144C81.4734 20.316 81.3903 20.8595 81.3903 21.4448C81.3903 22.0301 81.4734 22.5736 81.6814 23.0752C81.8893 23.5769 82.1805 23.995 82.5132 24.3712C82.8875 24.7475 83.3034 24.9983 83.8025 25.2074C84.3015 25.4164 84.8838 25.5 85.466 25.5C86.173 25.5 86.8385 25.3746 87.3791 25.1237C87.9198 24.8729 88.4189 24.5803 88.7932 24.2458L88.8348 24.204V20.6923H85.2581V22.4482H87.0048Z" fill="#EF4F23"/>
<path d="M95.9049 22.2809H99.4816V20.5251H95.9049V19.2291H99.9807V17.4732H93.9918V25.4164H100.064V23.6605H95.9465V22.2809H95.9049Z" fill="#EF4F23"/>
<path d="M105.138 19.2709H107.467V25.3746H109.421V19.2709H111.75V17.4314H105.179V19.2709H105.138Z" fill="#EF4F23"/>
<path d="M31.9406 1.9214C29.7364 1.04347 27.3242 0.792636 24.9952 1.2107C23.0405 1.54514 21.169 2.38126 19.6302 3.63545C19.0895 5.09866 18.5904 6.52006 18.0498 7.98327C17.6755 7.60702 17.2596 7.23076 16.7605 6.93812C15.8039 8.61036 15.2633 10.5334 15.1801 12.4565C15.0969 14.714 15.6376 16.9716 16.7605 18.9364C18.2577 18.602 19.7965 18.2676 21.2937 17.9749C20.7531 19.4381 20.2124 20.9013 19.6717 22.3645C21.7096 23.995 24.2882 24.9147 26.9083 24.9983C29.8195 25.0819 32.7724 24.1204 35.0598 22.2391C37.0977 20.5669 38.5117 18.1839 39.0524 15.6338C39.7594 12.4147 39.0939 8.903 37.2224 6.18561C35.9332 4.26254 34.0616 2.79932 31.9406 1.9214ZM33.9785 16.9298C32.8555 18.602 31.0672 19.7726 29.1125 20.1906C26.8667 20.6923 24.4545 20.316 22.5414 19.0201C21.1274 18.1003 20.0876 16.6371 19.6717 15.0067C19.2974 13.7107 19.2974 12.2893 19.7133 10.9933L19.7549 11.0351C19.547 10.0736 19.0895 9.19565 18.4657 8.44314C18.3409 8.27591 18.2161 8.1505 18.0913 7.98327C19.5886 7.69063 21.0858 7.35618 22.583 7.06354C24.1218 5.97658 26.0349 5.51672 27.8648 5.60033C29.7364 5.68394 31.6079 6.39464 32.9803 7.69063C34.228 8.81939 34.9766 10.4498 35.143 12.1221C35.3093 13.7943 34.8934 15.5502 33.9785 16.9298Z" fill="#1F2353"/>
<path d="M22.5414 7.06354C21.0442 7.35618 19.547 7.69063 18.0498 7.98327C18.1745 8.10869 18.2993 8.27591 18.4241 8.44314C19.0063 9.19565 19.4638 10.0736 19.7133 11.0351C20.046 12.3311 20.046 13.7107 19.6717 15.0067C19.9629 16.1354 20.5451 17.1388 21.3353 17.9749C19.8381 18.2676 18.2993 18.6438 16.8021 18.9364C15.388 19.898 13.6829 20.3997 12.0193 20.3579C9.93984 20.3579 7.81879 19.6053 6.32157 18.1003C5.11548 16.888 4.36688 15.2157 4.24211 13.5017C4.11734 11.7876 4.658 10.0318 5.69773 8.65217C6.94541 7.02173 8.81693 5.97658 10.8132 5.68394C12.8511 5.3913 15.0553 5.76755 16.8021 6.93812C17.2596 7.23076 17.6755 7.60702 18.0913 7.98327C18.632 6.52006 19.1311 5.09866 19.6717 3.63545C17.8002 2.17223 15.5128 1.2525 13.1422 1.08528C10.8964 0.876248 8.5674 1.29431 6.52952 2.33946C4.32529 3.42642 2.49536 5.26588 1.37245 7.43979C0.582249 8.98662 0.124766 10.7425 0.0415878 12.4983V13.4181C0.0831771 15.6338 0.790195 17.8913 2.03787 19.7308C3.32714 21.6538 5.24025 23.2007 7.40289 24.0368C9.81507 24.9983 12.5184 25.2073 15.0553 24.5803C16.7189 24.1622 18.2993 23.4097 19.6717 22.3227C20.2124 20.8595 20.7947 19.3963 21.2937 17.9331C21.668 18.3094 22.0839 18.6856 22.4998 18.9783C23.7059 16.888 24.2466 14.4214 24.0386 11.9966C23.9554 10.2408 23.4148 8.56856 22.5414 7.06354Z" fill="#EF4F23"/>
</g>
<defs>
<clipPath id="clip0_4_79">
<rect width="112" height="25" fill="white" transform="translate(0 0.5)"/>
</clipPath>
</defs>
</svg>
