<svg width="219" height="216" viewBox="0 0 219 216" fill="none" xmlns="http://www.w3.org/2000/svg">
<rect width="219" height="216" rx="8" fill="#F0F0F5"/>
<rect x="10" y="24" width="3" height="20" rx="1.5" fill="#E3E3E3"/>
<rect x="10" y="70.6667" width="3" height="20" rx="1.5" fill="#E3E3E3"/>
<rect x="10" y="117.333" width="3" height="20" rx="1.5" fill="#E3E3E3"/>
<rect x="10" y="164" width="3" height="20" rx="1.5" fill="#E3E3E3"/>
<rect opacity="0.3" x="20" y="12.25" width="40" height="40" rx="4" fill="#EF552B"/>
<rect opacity="0.5" x="68" y="12.25" width="40" height="40" rx="4" fill="#EF552B"/>
<rect opacity="0.2" x="116" y="12.25" width="40" height="40" rx="4" fill="#EF552B"/>
<rect opacity="0.3" x="164" y="12.25" width="40" height="40" rx="4" fill="#EF552B"/>
<rect opacity="0.2" x="20" y="60.25" width="40" height="40" rx="4" fill="#EF552B"/>
<rect x="68" y="60.25" width="40" height="40" rx="4" fill="#EF552B"/>
<rect opacity="0.5" x="116" y="60.25" width="40" height="40" rx="4" fill="#EF552B"/>
<rect x="164" y="60.25" width="40" height="40" rx="4" fill="#EF552B"/>
<rect opacity="0.5" x="20" y="108.25" width="40" height="40" rx="4" fill="#EF552B"/>
<rect x="68" y="108.25" width="40" height="40" rx="4" fill="#EF552B"/>
<rect opacity="0.5" x="116" y="108.25" width="40" height="40" rx="4" fill="#EF552B"/>
<rect opacity="0.2" x="164" y="108.25" width="40" height="40" rx="4" fill="#EF552B"/>
<rect opacity="0.3" x="20" y="156.25" width="40" height="40" rx="4" fill="#EF552B"/>
<rect opacity="0.2" x="68" y="156.25" width="40" height="40" rx="4" fill="#EF552B"/>
<rect opacity="0.3" x="116" y="156.25" width="40" height="40" rx="4" fill="#EF552B"/>
<rect opacity="0.3" x="164" y="156.25" width="40" height="40" rx="4" fill="#EF552B"/>
<rect x="31" y="204.25" width="20" height="2.5" rx="1.25" fill="#E3E3E3"/>
<rect x="78.3334" y="204.25" width="20" height="2.5" rx="1.25" fill="#E3E3E3"/>
<rect x="125.667" y="204.25" width="20" height="2.5" rx="1.25" fill="#E3E3E3"/>
<rect x="173" y="204.25" width="20" height="2.5" rx="1.25" fill="#E3E3E3"/>
</svg>
