<svg width="750" height="450" viewBox="0 0 750 450" fill="none" xmlns="http://www.w3.org/2000/svg">
<path d="M742 0H8C3.58172 0 0 3.58173 0 8.00001V442C0 446.418 3.58172 450 8 450H742C746.418 450 750 446.418 750 442V8C750 3.58172 746.418 0 742 0Z" fill="#F0F0F5"/>
<path d="M0 8C0 3.58172 3.58172 0 8 0H742C746.418 0 750 3.58172 750 8V38H0V8Z" fill="white"/>
<path d="M40 25C43.3137 25 46 22.3137 46 19C46 15.6863 43.3137 13 40 13C36.6863 13 34 15.6863 34 19C34 22.3137 36.6863 25 40 25Z" fill="#EF6060"/>
<path d="M63.9 25C67.2137 25 69.9 22.3137 69.9 19C69.9 15.6863 67.2137 13 63.9 13C60.5863 13 57.9 15.6863 57.9 19C57.9 22.3137 60.5863 25 63.9 25Z" fill="#EF7E60"/>
<path d="M87.9 25C91.2137 25 93.9 22.3137 93.9 19C93.9 15.6863 91.2137 13 87.9 13C84.5863 13 81.9 15.6863 81.9 19C81.9 22.3137 84.5863 25 87.9 25Z" fill="#52CC8F"/>
<path d="M122.3 274.4C153.615 274.4 179 249.015 179 217.7C179 186.385 153.615 161 122.3 161C90.9854 161 65.6 186.385 65.6 217.7C65.6 249.015 90.9854 274.4 122.3 274.4Z" fill="#CFCFCF"/>
<path d="M122.3 217.7H179C179 248.8 153.4 274.4 122.3 274.4C91.2 274.4 65.6 248.8 65.6 217.7C65.6 186.6 91.2 161 122.3 161V217.7Z" fill="#EF6060"/>
<path d="M122.3 217.7L78.8 254.2C70.3 244 65.6 231 65.6 217.7C65.6 186.6 91.2 161 122.3 161V217.7Z" fill="#52CC8F"/>
<path d="M122.3 217.7L150.7 266.8C142.1 271.8 132.3 274.4 122.3 274.4C102.1 274.4 83.3 263.6 73.2 246L122.3 217.7Z" fill="#5C89E6"/>
<path d="M122.3 250.1C140.194 250.1 154.7 235.594 154.7 217.7C154.7 199.806 140.194 185.3 122.3 185.3C104.406 185.3 89.9 199.806 89.9 217.7C89.9 235.594 104.406 250.1 122.3 250.1Z" fill="#F0F0F5"/>
<path d="M276.7 274.4C308.015 274.4 333.4 249.015 333.4 217.7C333.4 186.385 308.015 161 276.7 161C245.385 161 220 186.385 220 217.7C220 249.015 245.385 274.4 276.7 274.4Z" fill="#CFCFCF"/>
<path d="M276.7 217.7H333.4C333.4 248.8 307.8 274.4 276.7 274.4C245.6 274.4 220 248.8 220 217.7C220 186.6 245.6 161 276.7 161V217.7Z" fill="#EF552B"/>
<path d="M276.7 217.7L233.2 254.2C224.7 244 220 231 220 217.7C220 186.6 245.6 161 276.7 161V217.7Z" fill="#52CC8F"/>
<path d="M276.7 217.7L305.1 266.8C296.5 271.8 286.7 274.4 276.7 274.4C256.5 274.4 237.7 263.6 227.6 246L276.7 217.7Z" fill="#5C89E6"/>
<path d="M276.7 250.1C294.594 250.1 309.1 235.594 309.1 217.7C309.1 199.806 294.594 185.3 276.7 185.3C258.806 185.3 244.3 199.806 244.3 217.7C244.3 235.594 258.806 250.1 276.7 250.1Z" fill="#F0F0F5"/>
<path d="M677.8 185.8H449.3C445.7 185.8 442.7 182.8 442.7 179.2C442.7 175.6 445.7 172.6 449.3 172.6H677.9C681.5 172.6 684.5 175.6 684.5 179.2C684.4 182.8 681.5 185.8 677.8 185.8Z" fill="#E3E3E3"/>
<path d="M290 122.4H82.9C73.3 122.4 65.6 114.7 65.6 105.1C65.6 95.5 73.3 87.8 82.9 87.8H290C299.6 87.8 307.3 95.5 307.3 105.1C307.3 114.6 299.6 122.4 290 122.4Z" fill="#E3E3E3"/>
<path d="M456.3 313V390.8C456.3 394.2 459.1 397 462.5 397C465.9 397 468.7 394.2 468.7 390.8V313C468.7 309.6 465.9 306.8 462.5 306.8C459.1 306.8 456.3 309.6 456.3 313Z" fill="#CFE6DA"/>
<path d="M456.3 350.2V390.9C456.3 394.3 459.1 397.1 462.5 397.1C465.9 397.1 468.7 394.3 468.7 390.9V350.2C468.7 346.8 465.9 344 462.5 344C459.1 344 456.3 346.8 456.3 350.2Z" fill="#52CC8F"/>
<path d="M496 313V390.8C496 394.2 498.8 397 502.2 397C505.6 397 508.4 394.2 508.4 390.8V313C508.4 309.6 505.6 306.8 502.2 306.8C498.8 306.8 496 309.6 496 313Z" fill="#CFD7E6"/>
<path d="M496 336.9V390.9C496 394.3 498.8 397.1 502.2 397.1C505.6 397.1 508.4 394.3 508.4 390.9V336.9C508.4 333.5 505.6 330.7 502.2 330.7C498.8 330.7 496 333.5 496 336.9Z" fill="#5C89E6"/>
<path d="M535.7 313V390.8C535.7 394.2 538.5 397 541.9 397C545.3 397 548.1 394.2 548.1 390.8V313C548.1 309.6 545.3 306.8 541.9 306.8C538.5 306.8 535.7 309.6 535.7 313Z" fill="#E6DFCF"/>
<path d="M535.7 362.2V390.9C535.7 394.3 538.5 397.1 541.9 397.1C545.3 397.1 548.1 394.3 548.1 390.9V362.2C548.1 358.8 545.3 356 541.9 356C538.5 356 535.7 358.8 535.7 362.2Z" fill="#FFC72E"/>
<path d="M575.4 313V390.8C575.4 394.2 578.2 397 581.6 397C585 397 587.8 394.2 587.8 390.8V313C587.8 309.6 585 306.8 581.6 306.8C578.2 306.8 575.4 309.6 575.4 313Z" fill="#E6CFCF"/>
<path d="M575.4 331.1V390.9C575.4 394.3 578.2 397.1 581.6 397.1C585 397.1 587.8 394.3 587.8 390.9V331.1C587.8 327.7 585 324.9 581.6 324.9C578.2 324.9 575.4 327.7 575.4 331.1Z" fill="#EF6060"/>
<path d="M615.1 313V390.8C615.1 394.2 617.9 397 621.3 397C624.7 397 627.5 394.2 627.5 390.8V313C627.5 309.6 624.7 306.8 621.3 306.8C617.9 306.8 615.1 309.6 615.1 313Z" fill="#D3CFE6"/>
<path d="M615.1 350.2V390.9C615.1 394.3 617.9 397.1 621.3 397.1C624.7 397.1 627.5 394.3 627.5 390.9V350.2C627.5 346.8 624.7 344 621.3 344C617.9 344 615.1 346.8 615.1 350.2Z" fill="#9780FF"/>
<path d="M654.8 313V390.8C654.8 394.2 657.6 397 661 397C664.4 397 667.2 394.2 667.2 390.8V313C667.2 309.6 664.4 306.8 661 306.8C657.6 306.8 654.8 309.6 654.8 313Z" fill="#CFE6DA"/>
<path d="M654.8 350.2V390.9C654.8 394.3 657.6 397.1 661 397.1C664.4 397.1 667.2 394.3 667.2 390.9V350.2C667.2 346.8 664.4 344 661 344C657.6 344 654.8 346.8 654.8 350.2Z" fill="#52CC8F"/>
<path d="M677.8 212.6H449.3C445.7 212.6 442.7 209.6 442.7 206C442.7 202.4 445.7 199.4 449.3 199.4H677.9C681.5 199.4 684.5 202.4 684.5 206C684.4 209.7 681.5 212.6 677.8 212.6Z" fill="#E3E3E3"/>
<path d="M677.8 239.5H449.3C445.7 239.5 442.7 236.5 442.7 232.9C442.7 229.3 445.7 226.3 449.3 226.3H677.9C681.5 226.3 684.5 229.3 684.5 232.9C684.4 236.5 681.5 239.5 677.8 239.5Z" fill="#E3E3E3"/>
<path d="M677.8 266.3H449.3C445.7 266.3 442.7 263.3 442.7 259.7C442.7 256.1 445.7 253.1 449.3 253.1H677.9C681.5 253.1 684.5 256.1 684.5 259.7C684.4 263.4 681.5 266.3 677.8 266.3Z" fill="#E3E3E3"/>
<path d="M465.1 413.7H459.9C458.6 413.7 457.6 412.7 457.6 411.4C457.6 410.1 458.6 409.1 459.9 409.1H465.1C466.4 409.1 467.4 410.1 467.4 411.4C467.5 412.7 466.4 413.7 465.1 413.7Z" fill="#E3E3E3"/>
<path d="M504.8 413.7H499.6C498.3 413.7 497.3 412.7 497.3 411.4C497.3 410.1 498.3 409.1 499.6 409.1H504.8C506.1 409.1 507.1 410.1 507.1 411.4C507.2 412.7 506.1 413.7 504.8 413.7Z" fill="#E3E3E3"/>
<path d="M544.5 413.7H539.3C538 413.7 537 412.7 537 411.4C537 410.1 538 409.1 539.3 409.1H544.5C545.8 409.1 546.8 410.1 546.8 411.4C546.9 412.7 545.8 413.7 544.5 413.7Z" fill="#E3E3E3"/>
<path d="M584.2 413.7H579C577.7 413.7 576.7 412.7 576.7 411.4C576.7 410.1 577.7 409.1 579 409.1H584.2C585.5 409.1 586.5 410.1 586.5 411.4C586.6 412.7 585.5 413.7 584.2 413.7Z" fill="#E3E3E3"/>
<path d="M624 413.7H618.8C617.5 413.7 616.5 412.7 616.5 411.4C616.5 410.1 617.5 409.1 618.8 409.1H624C625.3 409.1 626.3 410.1 626.3 411.4C626.3 412.7 625.2 413.7 624 413.7Z" fill="#E3E3E3"/>
<path d="M663.7 413.7H658.5C657.2 413.7 656.2 412.7 656.2 411.4C656.2 410.1 657.2 409.1 658.5 409.1H663.7C665 409.1 666 410.1 666 411.4C666 412.7 664.9 413.7 663.7 413.7Z" fill="#E3E3E3"/>
<path d="M668.774 105.549C669.754 105.549 670.549 104.754 670.549 103.774C670.549 102.794 669.754 102 668.774 102C667.794 102 667 102.794 667 103.774C667 104.754 667.794 105.549 668.774 105.549Z" fill="#808080"/>
<path d="M675.7 105.549C676.68 105.549 677.474 104.754 677.474 103.774C677.474 102.794 676.68 102 675.7 102C674.72 102 673.926 102.794 673.926 103.774C673.926 104.754 674.72 105.549 675.7 105.549Z" fill="#808080"/>
<path d="M682.626 105.549C683.606 105.549 684.4 104.754 684.4 103.774C684.4 102.794 683.606 102 682.626 102C681.646 102 680.851 102.794 680.851 103.774C680.851 104.754 681.646 105.549 682.626 105.549Z" fill="#808080"/>
<path d="M286.7 344.2H72.2C68.6 344.2 65.6 341.2 65.6 337.6C65.6 334 68.6 331 72.2 331H286.8C290.4 331 293.4 334 293.4 337.6C293.3 341.2 290.4 344.2 286.7 344.2Z" fill="#E3E3E3"/>
<path d="M249.7 371H72.2C68.6 371 65.6 368 65.6 364.4C65.6 360.8 68.6 357.8 72.2 357.8H249.7C253.3 357.8 256.3 360.8 256.3 364.4C256.3 368.1 253.3 371 249.7 371Z" fill="#E3E3E3"/>
<path d="M363.3 345.9L355.8 344.8C355.1 344.7 354.6 344.3 354.3 343.7L350.9 336.9C350.2 335.4 348 335.4 347.3 336.9L343.9 343.7C343.6 344.3 343 344.7 342.4 344.8L334.9 345.9C333.3 346.1 332.6 348.2 333.8 349.3L339.3 354.6C339.8 355.1 340 355.7 339.9 356.4L338.6 363.9C338.3 365.5 340 366.8 341.5 366L348.2 362.5C348.8 362.2 349.5 362.2 350.1 362.5L356.8 366C358.3 366.8 360 365.5 359.7 363.9L358.4 356.4C358.3 355.8 358.5 355.1 359 354.6L364.5 349.3C365.6 348.2 365 346.1 363.3 345.9Z" fill="#E3E3E3"/>
</svg>
