<svg width="208" height="119" viewBox="0 0 208 119" fill="none" xmlns="http://www.w3.org/2000/svg">
<rect width="208" height="119" rx="8" fill="#F0F0F5"/>
<path d="M30.0763 90.9545L56.8729 60.5L82.8051 84.25L114.179 48.4863" stroke="#E3E3E3" stroke-width="3"/>
<circle cx="29" cy="91" r="6" fill="#EF7E60"/>
<circle cx="57" cy="60" r="6" fill="#EF7E60"/>
<circle cx="83" cy="83" r="6" fill="#EF7E60"/>
<circle cx="114" cy="48" r="6" fill="#EF7E60"/>
<rect x="21" y="15" width="11" height="4" rx="2" fill="#E3E3E3"/>
<rect x="73" y="15" width="11" height="4" rx="2" fill="#E3E3E3"/>
<rect x="126" y="15" width="11" height="4" rx="2" fill="#E3E3E3"/>
<rect x="178" y="15" width="11" height="4" rx="2" fill="#E3E3E3"/>
<rect x="154" y="83" width="35" height="20" rx="4" fill="#FFC72E"/>
<path d="M177.339 90.6555L174.514 90.2584C174.25 90.2222 174.062 90.0778 173.949 89.8612L172.668 87.4062C172.405 86.8646 171.576 86.8646 171.312 87.4062L170.032 89.8612C169.919 90.0778 169.693 90.2222 169.467 90.2584L166.642 90.6555C166.039 90.7277 165.776 91.4859 166.228 91.883L168.299 93.7965C168.488 93.977 168.563 94.1936 168.525 94.4464L168.036 97.1541C167.923 97.7318 168.563 98.2012 169.128 97.9123L171.651 96.6487C171.877 96.5404 172.141 96.5404 172.367 96.6487L174.89 97.9123C175.455 98.2012 176.096 97.7318 175.983 97.1541L175.493 94.4464C175.455 94.2298 175.531 93.977 175.719 93.7965L177.791 91.883C178.205 91.4859 177.979 90.7277 177.339 90.6555Z" fill="#99771C" fill-opacity="0.64"/>
<rect x="154" y="55" width="35" height="5" rx="2.5" fill="#D9D9D9"/>
<rect x="154" y="69" width="27" height="5" rx="2.5" fill="#D9D9D9"/>
<rect x="154" y="41" width="30" height="5" rx="2.5" fill="#D9D9D9"/>
</svg>
