<svg width="208" height="71" viewBox="0 0 208 71" fill="none" xmlns="http://www.w3.org/2000/svg">
<rect width="208" height="71" rx="8" fill="#F0F0F5"/>
<mask id="path-2-inside-1_4_26" fill="white">
<path d="M70 35.5C70 47.3741 60.3741 57 48.5 57C36.6259 57 27 47.3741 27 35.5C27 23.6259 36.6259 14 48.5 14C60.3741 14 70 23.6259 70 35.5ZM37.75 35.5C37.75 41.4371 42.5629 46.25 48.5 46.25C54.4371 46.25 59.25 41.4371 59.25 35.5C59.25 29.5629 54.4371 24.75 48.5 24.75C42.5629 24.75 37.75 29.5629 37.75 35.5Z"/>
</mask>
<path d="M70 35.5C70 47.3741 60.3741 57 48.5 57C36.6259 57 27 47.3741 27 35.5C27 23.6259 36.6259 14 48.5 14C60.3741 14 70 23.6259 70 35.5ZM37.75 35.5C37.75 41.4371 42.5629 46.25 48.5 46.25C54.4371 46.25 59.25 41.4371 59.25 35.5C59.25 29.5629 54.4371 24.75 48.5 24.75C42.5629 24.75 37.75 29.5629 37.75 35.5Z" stroke="#DFD9CB" stroke-width="20" mask="url(#path-2-inside-1_4_26)"/>
<mask id="path-3-inside-2_4_26" fill="white">
<path d="M48.5 14C45.3485 14 42.2356 14.6928 39.3816 16.0294C36.5276 17.3659 34.0024 19.3136 31.9846 21.7344C29.9669 24.1552 28.506 26.99 27.7054 30.0381C26.9047 33.0861 26.784 36.2729 27.3517 39.3728C27.9194 42.4727 29.1616 45.4099 30.9904 47.9765C32.8192 50.543 35.1898 52.6762 37.9345 54.2249C40.6792 55.7735 43.7308 56.6999 46.8732 56.9384C50.0156 57.1768 53.172 56.7215 56.119 55.6048L52.3095 45.5524C50.836 46.1108 49.2578 46.3384 47.6866 46.2192C46.1154 46.1 44.5896 45.6368 43.2173 44.8624C41.8449 44.0881 40.6596 43.0215 39.7452 41.7382C38.8308 40.455 38.2097 38.9864 37.9258 37.4364C37.642 35.8865 37.7024 34.2931 38.1027 32.769C38.503 31.245 39.2334 29.8276 40.2423 28.6172C41.2512 27.4068 42.5138 26.433 43.9408 25.7647C45.3678 25.0964 46.9243 24.75 48.5 24.75V14Z"/>
</mask>
<path d="M48.5 14C45.3485 14 42.2356 14.6928 39.3816 16.0294C36.5276 17.3659 34.0024 19.3136 31.9846 21.7344C29.9669 24.1552 28.506 26.99 27.7054 30.0381C26.9047 33.0861 26.784 36.2729 27.3517 39.3728C27.9194 42.4727 29.1616 45.4099 30.9904 47.9765C32.8192 50.543 35.1898 52.6762 37.9345 54.2249C40.6792 55.7735 43.7308 56.6999 46.8732 56.9384C50.0156 57.1768 53.172 56.7215 56.119 55.6048L52.3095 45.5524C50.836 46.1108 49.2578 46.3384 47.6866 46.2192C46.1154 46.1 44.5896 45.6368 43.2173 44.8624C41.8449 44.0881 40.6596 43.0215 39.7452 41.7382C38.8308 40.455 38.2097 38.9864 37.9258 37.4364C37.642 35.8865 37.7024 34.2931 38.1027 32.769C38.503 31.245 39.2334 29.8276 40.2423 28.6172C41.2512 27.4068 42.5138 26.433 43.9408 25.7647C45.3678 25.0964 46.9243 24.75 48.5 24.75V14Z" stroke="#FFC72E" stroke-width="20" stroke-linecap="square" mask="url(#path-3-inside-2_4_26)"/>
<rect x="112" y="49" width="76" height="5" rx="2.5" fill="#D9D9D9"/>
<rect x="104" y="38" width="84" height="5" rx="2.5" fill="#D9D9D9"/>
<path d="M170.774 26.5487C171.754 26.5487 172.549 25.7543 172.549 24.7743C172.549 23.7944 171.754 23 170.774 23C169.794 23 169 23.7944 169 24.7743C169 25.7543 169.794 26.5487 170.774 26.5487Z" fill="#808080"/>
<path d="M177.7 26.5487C178.68 26.5487 179.474 25.7543 179.474 24.7743C179.474 23.7944 178.68 23 177.7 23C176.72 23 175.926 23.7944 175.926 24.7743C175.926 25.7543 176.72 26.5487 177.7 26.5487Z" fill="#808080"/>
<path d="M184.626 26.5487C185.606 26.5487 186.4 25.7543 186.4 24.7743C186.4 23.7944 185.606 23 184.626 23C183.646 23 182.851 23.7944 182.851 24.7743C182.851 25.7543 183.646 26.5487 184.626 26.5487Z" fill="#808080"/>
</svg>
