<svg width="208" height="259" viewBox="0 0 208 259" fill="none" xmlns="http://www.w3.org/2000/svg">
<rect width="208" height="259" rx="8" fill="#F0F0F5"/>
<g clip-path="url(#clip0_4_23)">
<path d="M104.437 130.476C131.81 130.476 154 108.285 154 80.9126C154 53.5397 131.81 31.3496 104.437 31.3496C77.0642 31.3496 54.8741 53.5397 54.8741 80.9126C54.8741 108.285 77.0642 130.476 104.437 130.476Z" fill="#5C89E6"/>
<path d="M104.437 45.9475C109.594 50.4056 111.43 49.007 112.129 47.7832C112.829 46.5594 114.49 45.5105 114.49 45.5105C114.49 45.5105 116.063 44.4615 112.741 43.937C109.42 43.4126 107.934 43.6748 108.458 42.2762C108.983 40.8776 107.059 35.9825 106.535 38.8671C105.836 42.6259 99.2797 41.4895 104.437 45.9475Z" fill="#52CC8F"/>
<path d="M113.178 111.594C112.829 110.72 112.479 109.934 112.217 109.059C111.692 107.049 110.381 105.738 108.633 105.476C105.923 105.038 102.776 106.962 100.329 110.633C97.5315 114.741 93.4231 117.713 90.8881 117.276C89.7517 117.101 88.8776 116.14 88.4406 114.479C87.3916 110.633 84.7692 107.399 82.4965 104.601C80.7482 102.416 79.0874 100.406 78.9126 98.8322C78.1259 92.9755 78.1259 88.6049 78.9126 85.7203C79.5245 83.3601 83.8951 82.6608 88.965 81.8741C90.7133 81.6119 92.549 81.3496 94.3846 80.9126C97.2692 80.3007 99.4545 78.028 100.503 74.3566C101.815 69.986 101.465 64.042 100.241 62.8182C98.3182 60.8951 88.0035 49.9685 86.1678 46.472C84.507 43.6748 88.1783 37.993 97.8811 32.6608C98.2308 32.486 98.4056 32.0489 98.3182 31.6119C98.1434 31.1748 97.7063 30.9126 97.3566 31C72.6189 34.4965 54 56 54 80.9126C54 107.836 74.979 129.951 101.815 131.262C101.815 131.262 101.815 131.262 101.902 131.262C102.339 131.262 102.776 130.913 102.776 130.476C102.864 129.864 102.864 129.427 102.951 128.99C103.213 127.416 103.213 126.542 102.776 126.017C102.427 125.58 101.815 125.493 101.465 125.493C100.853 125.493 100.154 125.406 99.1923 124.007C98.4056 122.871 98.6678 122.346 98.7552 122.171C99.542 120.423 105.486 119.462 108.72 118.937C111.517 118.5 113.091 117.713 113.79 116.49C114.664 115.091 113.965 113.343 113.178 111.594Z" fill="#52CC8F"/>
<path d="M121.133 47.1713C122.357 48.1328 123.93 48.9196 125.503 49.7063C127.339 50.5804 129.175 51.5419 129.612 52.4161C129.787 52.7657 129.437 53.5524 129.262 54.1643C128.913 55.0384 128.476 56 129.087 56.6993C129.524 57.2238 130.224 57.3986 131.01 57.3986C131.448 57.3986 131.797 57.3986 132.234 57.3112C136.255 56.7867 141.587 57.0489 145.521 57.3112C146.308 57.3986 147.094 57.3986 147.706 57.3986C148.056 57.3986 148.318 57.2238 148.493 56.9615C148.668 56.6993 148.668 56.3496 148.493 56.0874C143.248 46.8217 135.119 39.3916 125.503 34.9335C125.241 34.8461 124.892 34.8461 124.717 35.021C124.455 35.1958 124.28 35.458 124.28 35.7203C124.28 37.6433 123.93 38.7797 123.231 39.479L122.706 39.9161C121.22 41.2273 119.559 42.8007 119.647 44.5489C119.559 45.5979 120.084 46.472 121.133 47.1713Z" fill="#52CC8F"/>
<path d="M111.43 75.5804C115.976 82.3986 114.315 85.458 114.664 90.8776C115.014 96.2972 119.647 104.864 121.133 107.311C122.619 109.584 123.056 111.157 123.493 105.213C123.843 99.1818 117.899 95.5105 125.416 92.3636C133.021 89.2168 140.538 91.5769 140.538 85.1958C140.538 78.8147 139.402 73.1329 137.217 70.2483C135.119 67.3636 124.28 61.1574 118.511 66.7518C112.741 72.3462 106.885 68.6748 111.43 75.5804Z" fill="#52CC8F"/>
<path d="M151.29 98.6573C151.115 98.3951 150.941 98.3077 150.678 98.2203C146.92 97.7832 144.472 97.958 141.762 100.056C137.392 103.465 133.72 108.273 132.846 110.283C132.497 111.157 132.584 112.206 132.671 113.168C132.846 114.829 132.759 115.353 131.972 115.703C131.01 116.052 129.612 116.14 128.126 116.315C126.028 116.49 123.93 116.664 122.269 117.538C119.385 119.112 115.713 122.871 114.752 126.105L114.664 126.28C114.402 127.154 114.052 128.203 113.878 129.252C113.79 129.514 113.878 129.864 114.14 130.038C114.315 130.213 114.49 130.301 114.752 130.301C114.839 130.301 114.839 130.301 114.927 130.301C131.535 126.804 145.171 115.266 151.378 99.5315C151.465 99.1818 151.465 98.9196 151.29 98.6573Z" fill="#52CC8F"/>
<path d="M123.276 62.0733C118.312 57.1084 110.237 57.1084 105.272 62.0733C105.272 62.0733 101.671 65.6742 99.325 68.0202C98.8339 68.5113 99.2704 69.3296 99.9251 69.2205C102.489 68.7295 105.217 68.9477 107.672 69.9298C107.945 70.0389 108.218 69.9843 108.436 69.7661L110.564 67.6383C112.365 65.8379 115.311 65.5105 117.329 67.0927C119.785 69.0023 119.948 72.5486 117.82 74.6764L110.073 82.4238C108.164 84.3334 105.054 84.5516 103.035 82.8057C102.107 82.0419 101.562 81.0053 101.398 79.9141C101.289 79.4231 100.689 79.2048 100.307 79.4776C100.143 79.5867 99.9797 79.7504 99.816 79.9141L95.3422 84.3879C95.1239 84.6062 95.0694 84.9335 95.233 85.2063C95.7786 86.2429 96.4879 87.1704 97.3608 88.0434C102.326 93.0082 110.4 93.0082 115.365 88.0434L123.276 80.1323C128.241 75.1129 128.241 67.0927 123.276 62.0733Z" fill="white"/>
<path d="M109.036 92.5172C106.472 93.0083 103.744 92.79 101.289 91.808C101.016 91.6988 100.743 91.7534 100.525 91.9716L98.3974 94.0994C96.597 95.8999 93.6508 96.2272 91.6321 94.645C89.177 92.7355 89.0133 89.1891 91.1411 87.0613L98.8885 79.3139C100.798 77.4044 103.853 77.1861 105.872 78.932C106.8 79.6959 107.345 80.7325 107.563 81.8237C107.672 82.3147 108.218 82.5329 108.6 82.2601C108.873 82.0964 109.091 81.9328 109.309 81.7145L113.619 77.4044C113.838 77.1861 113.892 76.8588 113.729 76.586C113.183 75.5494 112.474 74.6219 111.601 73.7489C106.636 68.7841 98.5611 68.7841 93.5963 73.7489L85.6852 81.66C80.7203 86.6248 80.7203 94.6996 85.6852 99.6645C90.6501 104.629 98.7248 104.629 103.69 99.6645C103.69 99.6645 107.291 96.0636 109.637 93.7175C110.182 93.2265 109.691 92.4081 109.036 92.5172Z" fill="white"/>
</g>
<rect x="53" y="149" width="102" height="13" rx="6.5" fill="#E3E3E3"/>
<rect x="28" y="170" width="152" height="13" rx="6.5" fill="#E3E3E3"/>
<rect x="58" y="203" width="92" height="31" rx="8" fill="#5C89E6"/>
<rect opacity="0.5" x="87" y="215.5" width="34" height="6" rx="3" fill="white"/>
<defs>
<clipPath id="clip0_4_23">
<rect width="100" height="100.35" fill="white" transform="translate(54 31)"/>
</clipPath>
</defs>
</svg>
