<svg width="452" height="218" viewBox="0 0 452 218" fill="none" xmlns="http://www.w3.org/2000/svg">
<rect width="452" height="217.549" rx="8" fill="#F0F0F5"/>
<path d="M407.128 23.5487C408.108 23.5487 408.903 22.7543 408.903 21.7743C408.903 20.7944 408.108 20 407.128 20C406.148 20 405.354 20.7944 405.354 21.7743C405.354 22.7543 406.148 23.5487 407.128 23.5487Z" fill="#808080"/>
<path d="M413.677 23.5487C414.657 23.5487 415.451 22.7543 415.451 21.7743C415.451 20.7944 414.657 20 413.677 20C412.697 20 411.903 20.7944 411.903 21.7743C411.903 22.7543 412.697 23.5487 413.677 23.5487Z" fill="#808080"/>
<path d="M420.226 23.5487C421.206 23.5487 422 22.7543 422 21.7743C422 20.7944 421.206 20 420.226 20C419.246 20 418.451 20.7944 418.451 21.7743C418.451 22.7543 419.246 23.5487 420.226 23.5487Z" fill="#808080"/>
<rect x="30" y="39.5487" width="120" height="88" rx="8" fill="#D8E6E0"/>
<path opacity="0.5" d="M121.2 57.5487H58.7656C57.2445 57.5487 56 58.795 56 60.3183V102.313C56 103.836 57.2445 105.083 58.7656 105.083H86.2491V108.025H78.1251C77.7794 108.025 77.4682 108.302 77.4682 108.683V108.891C77.4682 109.237 77.7448 109.549 78.1251 109.549H101.875C102.221 109.549 102.532 109.272 102.532 108.891V108.683C102.532 108.337 102.255 108.025 101.875 108.025H93.7509V105.083H121.234C122.755 105.083 124 103.836 124 102.313V60.3183C123.965 58.795 122.721 57.5487 121.2 57.5487ZM121.891 102.313C121.891 102.694 121.58 103.005 121.2 103.005H58.7656C58.3854 103.005 58.0742 102.694 58.0742 102.313V60.3183C58.0742 59.9375 58.3854 59.6259 58.7656 59.6259H121.2C121.58 59.6259 121.891 59.9375 121.891 60.3183V102.313Z" fill="#52CC8F"/>
<rect x="166" y="39.5487" width="120" height="88" rx="8" fill="#D8DBE6"/>
<path opacity="0.5" d="M239.764 59.5487H212.236C210.731 59.5487 209.5 60.8072 209.5 62.3455V104.752C209.5 106.29 210.731 107.549 212.236 107.549H239.764C241.269 107.549 242.5 106.29 242.5 104.752V62.3455C242.5 60.8072 241.269 59.5487 239.764 59.5487ZM227.727 105.521H224.307C224.034 105.521 223.794 105.276 223.794 104.997C223.794 104.717 224.034 104.472 224.307 104.472H227.727C228.001 104.472 228.24 104.717 228.24 104.997C228.24 105.276 228.001 105.521 227.727 105.521ZM240.448 102.934H211.552V62.3455C211.552 61.9609 211.86 61.6463 212.236 61.6463H239.764C240.14 61.6463 240.448 61.9609 240.448 62.3455V102.934Z" fill="#5C89E6"/>
<rect x="302" y="39.5487" width="120" height="88" rx="8" fill="#E6D8D9"/>
<path opacity="0.5" d="M367.696 69.5487H356.304C354.762 69.5487 353.5 70.8055 353.5 72.3417V94.7557C353.5 96.2918 354.762 97.5487 356.304 97.5487H367.696C369.238 97.5487 370.5 96.2918 370.5 94.7557V72.3417C370.5 70.8055 369.273 69.5487 367.696 69.5487ZM363.98 70.5961C364.226 70.5961 364.436 70.8055 364.436 71.0499C364.436 71.2943 364.226 71.5038 363.98 71.5038C363.735 71.5038 363.525 71.2943 363.525 71.0499C363.525 70.8055 363.735 70.5961 363.98 70.5961ZM359.914 70.5262H362.333C362.613 70.5262 362.859 70.7706 362.859 71.0499C362.859 71.3292 362.613 71.5736 362.333 71.5736H359.914C359.634 71.5736 359.389 71.3292 359.389 71.0499C359.389 70.7706 359.634 70.5262 359.914 70.5262ZM368.397 94.7557C368.397 95.1397 368.081 95.4539 367.696 95.4539H356.304C355.919 95.4539 355.603 95.1397 355.603 94.7557V72.3417C355.603 71.9577 355.919 71.6434 356.304 71.6434H358.162L358.267 71.818C358.512 72.3068 359.003 72.5861 359.564 72.5861H364.471C364.997 72.5861 365.523 72.3068 365.768 71.818L365.838 71.6434H367.696C368.081 71.6434 368.397 71.9577 368.397 72.3417V94.7557Z" fill="#EF6060"/>
<rect x="77" y="135.549" width="24" height="12" rx="6" fill="#E3E3E3"/>
<circle cx="95" cy="141.549" r="4" fill="white"/>
<rect x="214" y="135.549" width="24" height="12" rx="6" fill="#E3E3E3"/>
<circle cx="232" cy="141.549" r="4" fill="white"/>
<rect x="351" y="135.549" width="24" height="12" rx="6" fill="#E3E3E3"/>
<circle cx="369" cy="141.549" r="4" fill="white"/>
<rect x="30" y="163.549" width="280" height="6" rx="3" fill="#D9D9D9"/>
<rect x="30" y="177.549" width="315" height="6" rx="3" fill="#D9D9D9"/>
<rect x="30" y="191.549" width="245" height="6" rx="3" fill="#D9D9D9"/>
</svg>
